<?xml version="1.0" encoding="UTF-8"?>
<svg id="Layer_1" data-name="Layer 1" xmlns="http://www.w3.org/2000/svg" viewBox="0 0 1080.5 1080.5">
  <path d="M409.57,539.48c0-174.97,263.14-174.97,263.14,0s-263.14,175.69-263.14,0Z"/>
  <path d="M866.75,367.92v343.66c0,85.15-69.02,154.17-154.17,154.17h-343.66c-85.15,0-154.17-69.02-154.17-154.17v-343.66c0-85.15,69.02-154.17,154.17-154.17h343.66c85.15,0,154.17,69.02,154.17,154.17ZM801.65,326.15c0-65.2-98.06-65.2-98.06,0s98.06,65.47,98.06,0ZM745.08,540.25c0-272.07-409.16-272.07-409.16,0s409.16,273.18,409.16,0Z"/>
  <path d="M1080.25,60.6v959.3c0,33.33-27.02,60.35-60.35,60.35H60.6c-33.33,0-60.35-27.02-60.35-60.35V60.6C.25,27.27,27.27.25,60.6.25h959.3c33.33,0,60.35,27.02,60.35,60.35ZM938.75,705.96v-332.42c0-128.57-104.22-232.79-232.79-232.79h-332.42c-128.57,0-232.79,104.22-232.79,232.79v332.42c0,128.57,104.22,232.79,232.79,232.79h332.42c128.57,0,232.79-104.22,232.79-232.79Z"/>
</svg>