<?xml version="1.0" encoding="UTF-8"?>
<svg id="Layer_1" data-name="Layer 1" xmlns="http://www.w3.org/2000/svg" viewBox="0 0 1080.5 1080.5">
  <path d="M1080.25,38.27v1003.95c0,21.01-17.02,38.02-38.02,38.02H38.27c-21.01,0-38.02-17.02-38.02-38.02V38.27C.25,17.27,17.27.25,38.27.25h1003.95c21.01,0,38.02,17.02,38.02,38.02ZM923.14,919.27v-287.91c-2.85-163.45-57.87-238.84-191.34-239.86-68.12,2.55-120.45,29.95-154.87,85.58v-71.32h-155.81v513.51h161.71v-290.17c3.26-112.28,174.43-140.81,177.49,0v290.17h162.82ZM322.21,919.27V405.76h-160.98v513.51h160.98ZM335.46,242.74c0-51.21-41.51-92.72-92.72-92.72s-92.72,41.51-92.72,92.72,41.51,92.72,92.72,92.72,92.72-41.51,92.72-92.72Z"/>
</svg>