<?xml version="1.0" encoding="UTF-8"?>
<svg xmlns="http://www.w3.org/2000/svg" viewBox="0 0 997.66 142.57">
  <g id="Name">
    <g>
      <path d="M7.43,95.62c-.96-.27-1.51-.69-1.92-3.16L.02,61.46c-.27-1.92,2.33-2.74,2.88-1.23,7.27,20.03,17.01,26.48,25.38,26.48,10.02,0,16.6-9.05,16.6-24.56V15.09c0-5.49-2.74-9.88-7.41-10.7-1.1-.14-1.37-.55-1.37-1.51s.55-1.51,1.51-1.51h36.49c.96,0,1.51.55,1.51,1.51s-.27,1.37-1.37,1.51c-4.66.82-7.41,5.21-7.41,10.7v46.37c0,24.69-11.94,37.32-34.98,37.32-3.43,0-14.41-.28-24.42-3.16Z"/>
      <path d="M79.31,84.78c0-19.76,31.42-19.62,36.36-31.83,0-10.98-3.16-15.23-9.47-15.23-5.9,0-9.6,4.94-9.6,10.43s1.37,8.09,3.84,8.37c1.92.27,1.65,2.88-.27,2.88-11.39,0-18.52-4.94-18.52-13.17,0-8.78,7.96-16.88,26.34-16.88,17.15,0,27.99,7.13,27.99,29.91v24.42c0,5.49,2.61,9.88,7.41,10.7.96.14,1.37.55,1.37,1.51s-.55,1.51-1.51,1.51h-23.87c-2.33,0-3.57-1.23-3.57-3.57v-3.7c-5.21,5.49-12.76,8.64-20.3,8.78-10.02,0-16.19-5.35-16.19-14.13ZM115.81,84.37v-22.64c-6.72,6.72-15.91,9.88-15.91,19.89,0,4.94,2.19,7.68,6.45,7.55,3.29-.14,6.86-2.06,9.47-4.8Z"/>
      <path d="M146.4,63.79c0-21.68,11.94-34.44,34.98-34.44,7.96,0,14.27.96,18.52,1.92.96.27,1.51.69,1.92,3.16l3.7,23.87c.41,2.61-2.61,3.16-3.43,1.1-5.21-13.17-12.21-19.76-20.03-19.76-9.33,0-13.44,9.33-13.44,24.15s4.12,24.15,15.64,24.15c5.9,0,13.86-2.47,18.93-19.62.69-2.06,3.7-1.51,3.29,1.1l-3.57,22.64c-.41,2.47-.96,2.88-1.92,3.16-4.25,1.51-10.7,3.16-19.07,3.16-23.6,0-35.53-12.9-35.53-34.57Z"/>
      <path d="M211.43,63.79c0-21.68,11.94-34.44,34.98-34.44s35.12,12.76,35.12,34.44-12.07,34.57-35.12,34.57-34.98-12.9-34.98-34.57ZM259.31,63.79c0-16.19-4.25-25.52-12.9-25.52s-12.76,9.33-12.76,25.52,4.12,25.65,12.76,25.65,12.9-9.33,12.9-25.65Z"/>
      <path d="M310.21,91.37v.14l-18.25,6.59c-1.23.41-1.92,0-1.92-1.37V21.13c0-6.04-1.51-9.47-7.41-8.92-1.1.14-1.65-.41-1.92-1.37-.27-.96.14-1.51,1.1-1.92l23.05-8.23c1.23-.41,2.47-.69,3.57-.69s1.78.69,1.78,1.78v35.67c4.39-4.66,10.56-8.09,18.93-8.09,16.33,0,27.99,13.17,27.99,34.44s-12.07,34.98-29.63,34.98c-8.09,0-13.58-2.74-17.29-7.41ZM334.9,63.79c0-15.64-4.12-24.01-11.94-24.01-6.45,0-12.07,5.9-12.76,15.09v11.66c.41,14.54,4.53,22.09,12.21,22.09,8.09,0,12.48-8.37,12.48-24.83Z"/>
      <path d="M397.6,95.9c0-.96.27-1.37,1.37-1.51,4.66-.82,7.41-5.21,7.41-10.7V15.09c0-5.49-2.74-9.88-7.41-10.7-1.1-.14-1.37-.55-1.37-1.51s.55-1.51,1.51-1.51h41.98c23.87,0,37.45,7.13,37.45,24.15,0,12.62-7.55,20.3-23.46,20.3,17.42,0,28.67,8.23,28.67,24.15,0,18.25-14.68,27.44-41.29,27.44h-43.35c-.96,0-1.51-.55-1.51-1.51ZM454.12,25.93c0-8.92-4.94-14.68-14.68-14.68h-11.11v29.91h9.47c10.7,0,16.33-5.76,16.33-15.23ZM459.33,69.97c0-11.8-8.51-18.93-20.17-18.93h-10.84v36.49h12.9c10.7,0,18.11-6.45,18.11-17.56Z"/>
      <path d="M490.47,95.9c0-.96.41-1.37,1.51-1.51,4.66-.82,7.41-5.21,7.41-10.7v-33.2c0-6.04-1.51-9.6-7.41-8.92-1.1,0-1.65-.41-1.92-1.37s.14-1.51,1.1-1.92l23.05-8.23c1.23-.41,2.47-.69,3.57-.69s1.78.69,1.78,1.78v14.27c4.25-7,13.31-16.46,22.22-16.46,1.24,0,2.06.96,2.06,2.33l-.69,20.03c-.14,2.19-1.1,2.33-2.61.55-1.92-2.19-4.53-3.84-8.92-3.84-3.29,0-8.51.96-12.07,4.25v31.42c0,5.49,2.61,9.88,7.41,10.7.96.14,1.37.55,1.37,1.51s-.55,1.51-1.51,1.51h-34.85c-.96,0-1.51-.55-1.51-1.51Z"/>
      <path d="M546.45,95.9c0-.96.41-1.37,1.51-1.51,4.67-.82,7.27-5.21,7.27-10.7v-33.2c0-6.04-1.37-9.6-7.27-8.92-1.1,0-1.65-.41-1.92-1.37s.14-1.51,1.1-1.92l23.05-8.23c1.1-.41,2.33-.69,3.57-.69,1.1,0,1.65.69,1.65,1.78v52.54c0,5.49,2.74,9.88,7.41,10.7,1.1.14,1.51.55,1.51,1.51s-.55,1.51-1.51,1.51h-34.85c-.96,0-1.51-.55-1.51-1.51ZM552.35,13.03c0-7.41,4.94-12.62,12.48-12.62s12.48,5.35,12.48,12.62c0,10.15-7.41,12.62-12.48,12.62-7.55,0-12.48-5.08-12.48-12.62Z"/>
      <path d="M589.11,65.03c0-22.5,12.76-35.67,28.81-35.67,8.09,0,13.99,3.29,18.11,7.82v-16.05c0-6.04-1.51-9.47-7.41-8.92-1.1.14-1.65-.41-1.92-1.37-.27-.96.14-1.51,1.1-1.92l23.05-8.23c1.23-.41,2.47-.69,3.57-.69s1.78.69,1.78,1.78v81.9c0,5.49,2.61,9.88,7.41,10.7.96.14,1.37.55,1.37,1.51s-.55,1.51-1.51,1.51h-23.19c-2.61,0-4.25-1.1-4.25-3.29v-4.53c-4.25,5.62-10.29,9.19-19.07,9.19-15.78,0-27.85-11.94-27.85-33.75ZM636.03,75.46v-16.6c0-13.03-5.35-19.21-12.35-19.21-8.23,0-12.35,8.51-12.35,24.28s4.39,24.15,12.07,24.15c5.62,0,10.29-4.12,12.62-12.62Z"/>
      <path d="M623.13,122.65c-44.45-7-64.89-.14-66.67,6.86-.69,2.74-3.43,1.92-3.98-.82-1.1-5.49,1.92-17.97,17.97-23.19,15.64-4.94,37.04-2.74,64.48,5.21,10.29,3.02,44.31,12.49,60.09,12.49,14.82,0,21.68-3.02,21.68-8.92,0-14.27-42.94-3.84-46.51-20.85-1.37-6.45,5.49-13.44,12.35-16.87-7.82-4.12-12.07-11.52-12.07-21.68,0-16.19,10.7-25.52,29.36-25.52,5.76,0,10.7.82,14.82,2.47,1.1-1.51,1.78-3.57,1.78-6.17,0-5.08-2.61-8.51-7.41-8.51-.55,0-.96-.27-.96-.82s.14-.69.69-.82c13.17-3.29,22.09-1.23,22.09,6.31,0,5.49-4.94,10.02-9.74,13.86,5.21,4.25,7.96,10.56,7.96,18.52,0,16.87-10.7,26.07-29.22,26.07-3.98,0-7.68-.41-10.98-1.23-2.33,1.23-5.49,4.66-4.66,7.68,2.74,9.88,52.41-2.33,52.41,23.19,0,13.58-14.82,21.68-38.14,21.68-28.26,0-54.33-5.62-75.32-8.92ZM708.47,54.74c0-10.15-3.16-16.87-8.78-16.87s-8.64,6.72-8.64,16.87,3.02,17.01,8.64,17.01,8.78-6.86,8.78-17.01Z"/>
      <path d="M735.63,95.9c0-.96.41-1.37,1.51-1.51,4.67-.82,7.41-5.21,7.41-10.7V21.81c0-6.04-1.51-9.47-7.41-8.92-1.1.14-1.65-.41-1.92-1.37-.27-.96.14-1.51,1.1-1.92l23.05-8.23c1.23-.41,2.47-.69,3.57-.69s1.78.69,1.78,1.78v42.53c4.25-8.37,12.35-15.64,23.05-15.64s16.74,7,16.74,17.01v37.04c0,5.49,2.74,10.15,7.55,10.98.96.14,1.37.55,1.37,1.51s-.55,1.51-1.51,1.51h-74.77c-.96,0-1.51-.55-1.51-1.51ZM784.33,85.75v-26.75c0-10.29-1.92-14.27-6.72-14.27-3.98,0-9.33,2.88-12.9,7.13v31.83c0,6.31,3.29,10.98,9.88,10.98,5.76,0,9.74-3.7,9.74-8.92Z"/>
      <path d="M816.16,84.78c0-19.76,31.42-19.62,36.36-31.83,0-10.98-3.16-15.23-9.47-15.23-5.9,0-9.6,4.94-9.6,10.43s1.37,8.09,3.84,8.37c1.92.27,1.65,2.88-.27,2.88-11.39,0-18.52-4.94-18.52-13.17,0-8.78,7.96-16.88,26.34-16.88,17.15,0,27.99,7.13,27.99,29.91v24.42c0,5.49,2.61,9.88,7.41,10.7.96.14,1.37.55,1.37,1.51s-.55,1.51-1.51,1.51h-23.87c-2.33,0-3.57-1.23-3.57-3.57v-3.7c-5.21,5.49-12.76,8.64-20.3,8.78-10.01,0-16.19-5.35-16.19-14.13ZM852.65,84.37v-22.64c-6.72,6.72-15.91,9.88-15.91,19.89,0,4.94,2.2,7.68,6.45,7.55,3.29-.14,6.86-2.06,9.47-4.8Z"/>
      <path d="M884.21,95.9c0-.96.41-1.37,1.51-1.51,4.67-.82,7.41-5.21,7.41-10.7v-33.2c0-6.04-1.51-9.6-7.41-8.92-1.1,0-1.65-.41-1.92-1.37s.14-1.51,1.1-1.92l23.05-8.23c1.23-.41,2.47-.69,3.57-.69s1.78.69,1.78,1.78v13.44c3.98-8.23,11.11-15.23,21.27-15.23,9.33,0,15.78,6.04,16.46,15.37,3.84-8.23,10.97-15.37,21.26-15.37s16.46,6.72,16.46,17.01v37.32c0,5.49,2.74,9.88,7.55,10.7.96.14,1.37.55,1.37,1.51s-.55,1.51-1.51,1.51h-110.44c-.96,0-1.51-.55-1.51-1.51ZM930.85,83.69v-26.07c0-10.15-1.78-12.9-5.9-12.9s-8.51,2.74-11.66,6.86v32.1c0,6.31,3.29,10.98,8.78,10.98s8.78-4.66,8.78-10.98ZM968.58,83.69v-26.07c0-10.15-1.78-12.9-5.9-12.9s-8.51,2.74-11.66,6.86v32.1c0,6.31,3.29,10.98,8.78,10.98s8.78-4.66,8.78-10.98Z"/>
    </g>
  </g>
  <g id="Flair">
    <g>
      <path d="M263.18,117.53c0-10.24,5.48-15.38,15.64-15.38,2.44,0,4.38.29,5.69.59.29.08.46.21.59.97l1.52,9.78c.13.84-.76.97-1.1.38-3.41-5.98-5.23-8.34-8.56-8.34-4.05,0-6.41,3.5-6.41,11.59,0,8.56,2.61,11.67,7.33,11.67,1.64,0,2.57-.38,3.29-1.01v-5.9c0-1.69-.84-3.03-2.28-3.29-.34-.04-.42-.17-.42-.46s.17-.46.46-.46h11.21c.29,0,.46.17.46.46s-.08.42-.42.46c-1.43.25-2.28,1.6-2.28,3.29v7.96c-4.26,1.81-7.42,2.53-10.79,2.53-8.77,0-13.95-4.85-13.95-14.83Z"/>
      <path d="M291.42,131.61c0-.29.13-.42.46-.46,1.43-.25,2.28-1.6,2.28-3.29v-10.2c0-1.85-.46-2.95-2.28-2.74-.34,0-.51-.13-.59-.42-.08-.29.04-.46.34-.59l7.08-2.53c.38-.13.76-.21,1.1-.21s.55.21.55.55v4.38c1.31-2.15,4.09-5.06,6.83-5.06.38,0,.63.29.63.72l-.21,6.15c-.04.67-.34.72-.8.17-.59-.67-1.39-1.18-2.74-1.18-1.01,0-2.61.29-3.71,1.31v9.65c0,1.69.8,3.03,2.28,3.29.29.04.42.17.42.46s-.17.46-.46.46h-10.7c-.29,0-.46-.17-.46-.46Z"/>
      <path d="M308.65,128.2c0-6.07,9.65-6.03,11.17-9.78,0-3.37-.97-4.68-2.91-4.68-1.81,0-2.95,1.52-2.95,3.2s.42,2.49,1.18,2.57c.59.08.51.88-.08.88-3.5,0-5.69-1.52-5.69-4.05,0-2.7,2.44-5.18,8.09-5.18,5.27,0,8.6,2.19,8.6,9.19v7.5c0,1.69.8,3.03,2.28,3.29.29.04.42.17.42.46s-.17.46-.46.46h-7.33c-.72,0-1.1-.38-1.1-1.1v-1.14c-1.6,1.69-3.92,2.66-6.24,2.7-3.08,0-4.97-1.64-4.97-4.34ZM319.86,128.07v-6.95c-2.06,2.07-4.89,3.03-4.89,6.11,0,1.52.67,2.36,1.98,2.32,1.01-.04,2.11-.63,2.91-1.47Z"/>
      <path d="M328.33,142.1c0-.29.13-.42.46-.46,1.43-.25,2.28-1.6,2.28-3.29v-20.69c0-1.85-.46-2.91-2.28-2.74-.34.04-.51-.13-.59-.42-.08-.29.04-.46.34-.59l7.08-2.53c.38-.13.76-.21,1.1-.21s.55.21.55.55v1.94c1.35-1.43,3.25-2.49,5.82-2.49,5.02,0,8.6,4.05,8.6,10.58s-3.71,10.75-9.1,10.75c-2.49,0-4.17-.84-5.31-2.28v8.13c0,1.69.84,3.03,2.28,3.29.34.04.46.17.46.46s-.17.46-.46.46h-10.75c-.29,0-.46-.17-.46-.46ZM344.85,121.75c0-4.8-1.26-7.38-3.67-7.38-1.98,0-3.71,1.81-3.92,4.64v3.58c.13,4.47,1.39,6.79,3.75,6.79,2.49,0,3.84-2.57,3.84-7.63Z"/>
      <path d="M352.61,131.61c0-.29.13-.42.46-.46,1.43-.25,2.28-1.6,2.28-3.29v-19.01c0-1.85-.46-2.91-2.28-2.74-.34.04-.51-.13-.59-.42-.08-.29.04-.46.34-.59l7.08-2.53c.38-.13.76-.21,1.1-.21s.55.21.55.55v13.06c1.31-2.57,3.79-4.8,7.08-4.8s5.14,2.15,5.14,5.23v11.38c0,1.69.84,3.12,2.32,3.37.3.04.42.17.42.46s-.17.46-.46.46h-22.97c-.29,0-.46-.17-.46-.46ZM367.57,128.49v-8.22c0-3.16-.59-4.38-2.06-4.38-1.22,0-2.87.88-3.96,2.19v9.78c0,1.94,1.01,3.37,3.03,3.37,1.77,0,2.99-1.14,2.99-2.74Z"/>
      <path d="M377.3,131.61c0-.29.13-.42.46-.46,1.43-.25,2.23-1.6,2.23-3.29v-10.2c0-1.85-.42-2.95-2.23-2.74-.34,0-.51-.13-.59-.42-.08-.29.04-.46.34-.59l7.08-2.53c.34-.13.72-.21,1.1-.21.34,0,.51.21.51.55v16.14c0,1.69.84,3.03,2.28,3.29.34.04.46.17.46.46s-.17.46-.46.46h-10.7c-.29,0-.46-.17-.46-.46ZM379.11,106.15c0-2.28,1.52-3.88,3.83-3.88s3.84,1.64,3.84,3.88c0,3.12-2.28,3.88-3.84,3.88-2.32,0-3.83-1.56-3.83-3.88Z"/>
      <path d="M390.41,121.75c0-6.66,3.67-10.58,10.75-10.58,2.44,0,4.38.29,5.69.59.29.08.46.21.59.97l1.14,7.33c.13.8-.8.97-1.05.34-1.6-4.05-3.75-6.07-6.15-6.07-2.87,0-4.13,2.87-4.13,7.42s1.26,7.42,4.8,7.42c1.81,0,4.26-.76,5.82-6.03.21-.63,1.14-.46,1.01.34l-1.1,6.95c-.13.76-.3.88-.59.97-1.31.46-3.29.97-5.86.97-7.25,0-10.92-3.96-10.92-10.62Z"/>
      <path d="M420.7,131.61c0-.29.08-.42.42-.46,1.43-.25,2.28-1.6,2.28-3.29v-21.07c0-1.69-.84-3.03-2.28-3.29-.34-.04-.42-.17-.42-.46s.17-.46.46-.46h11.38c9.65,0,14.29,4.76,14.29,14.75s-4.8,14.75-15.34,14.75h-10.33c-.3,0-.46-.17-.46-.46ZM439.46,117.2c0-7.42-2.53-11.46-7.42-11.46h-1.9v23.18h1.39c5.23,0,7.92-4.09,7.92-11.72Z"/>
      <path d="M449.15,121.75c0-6.66,3.67-10.58,9.9-10.58,5.86,0,9.02,3.46,9.19,9.61,0,.67-.34,1.05-1.05,1.05h-11.21c0,4.51,1.31,7.33,4.8,7.33,1.81,0,4.13-.63,5.61-4.59.21-.63,1.14-.46,1.01.34l-.89,5.52c-.13.76-.29.88-.59.97-1.31.46-3.29.97-5.86.97-7.25,0-10.92-3.96-10.92-10.62ZM459.64,114.33c-2.02,0-3.25,2.07-3.58,5.44h6.45c0-3.79-1.01-5.44-2.87-5.44Z"/>
      <path d="M469.8,131.06c-.17-.08-.38-.13-.42-.63l-.59-6.28c-.04-.55.59-.67.72-.25.93,3.71,4.05,5.44,7.12,5.44,2.32,0,3.08-.97,3.08-1.85,0-4.09-9.82-3.41-9.82-10.03,0-3.37,2.61-6.28,9.02-6.28,2.53,0,4.3.46,5.23.67.17.04.3.13.38.67l.97,5.82c.08.59-.63.67-.84.25-1.69-3.33-3.2-4.64-5.44-4.64-1.69,0-2.7.72-2.7,1.98,0,3.96,9.82,3.2,9.82,10.62,0,3.96-2.91,5.94-9.15,5.94-3.58,0-6.11-.59-7.38-1.43Z"/>
      <path d="M487.84,131.61c0-.29.13-.42.46-.46,1.43-.25,2.23-1.6,2.23-3.29v-10.2c0-1.85-.42-2.95-2.23-2.74-.34,0-.51-.13-.59-.42-.08-.29.04-.46.34-.59l7.08-2.53c.34-.13.72-.21,1.1-.21.34,0,.51.21.51.55v16.14c0,1.69.84,3.03,2.28,3.29.34.04.46.17.46.46s-.17.46-.46.46h-10.7c-.29,0-.46-.17-.46-.46ZM489.65,106.15c0-2.28,1.52-3.88,3.83-3.88s3.84,1.64,3.84,3.88c0,3.12-2.28,3.88-3.84,3.88-2.32,0-3.83-1.56-3.83-3.88Z"/>
      <path d="M500.1,138.48c0-2.45,3.41-4.21,8.05-3.79.17,0,.25.17.25.34s-.04.25-.25.29c-1.05.17-1.85,1.31-1.85,2.44,0,1.43,1.26,2.7,3.37,2.7,2.7,0,4.13-1.39,4.13-3.2,0-5.23-11.88-2.36-11.88-7.67,0-1.56.84-2.87,2.95-3.92-2.4-1.26-3.71-3.54-3.71-6.66,0-4.97,3.29-7.84,9.02-7.84,1.77,0,3.29.25,4.55.76.34-.46.55-1.1.55-1.9,0-1.56-.8-2.61-2.28-2.61-.17,0-.29-.08-.29-.25s.04-.21.21-.25c4.05-1.01,6.79-.38,6.79,1.94,0,1.69-1.52,3.08-2.99,4.26,1.6,1.31,2.44,3.25,2.44,5.69,0,5.18-3.29,8.01-8.98,8.01-1.22,0-2.36-.13-3.37-.38-.46.38-.59.8-.59,1.1,0,3.16,13.74.13,13.74,8.39,0,4.17-3.84,6.66-11.04,6.66-5.9,0-8.81-1.81-8.81-4.09ZM512.83,118.97c0-3.12-.97-5.18-2.7-5.18s-2.66,2.07-2.66,5.18.93,5.23,2.66,5.23,2.7-2.11,2.7-5.23Z"/>
      <path d="M521.84,131.15c1.43-.25,2.28-1.6,2.28-3.29v-10.2c0-1.85-.46-2.95-2.28-2.74-.67,0-.88-.76-.25-1.01l7.08-2.53c.38-.13.76-.21,1.1-.21s.55.21.55.55v4.26c1.31-2.57,3.79-4.8,7.08-4.8s5.14,2.15,5.14,5.23v11.63l.04-.17c0,1.69.8,3.03,2.28,3.29.63.08.51.93-.04.93h-22.97c-.59,0-.72-.84,0-.93ZM536.34,128.49v-8.22c0-3.16-.59-4.38-2.07-4.38-1.22,0-2.87.88-3.96,2.19v9.78c0,1.94,1.01,3.37,3.03,3.37,1.77,0,2.78-1.14,2.99-2.74Z"/>
    </g>
    <rect x="5.03" y="111.19" width="247" height="20"/>
    <rect x="745.03" y="111.19" width="252" height="20"/>
  </g>
</svg>